
<svg width="14px" height="14px" viewBox="0 0 14 14" version="1.1" xmlns="http://www.w3.org/2000/svg" xmlns:xlink="http://www.w3.org/1999/xlink">
    <g id="Page-1" stroke="none" stroke-width="1" fill="none" fill-rule="evenodd">
        <g id="Desktop-HD-Copy-3">
            <g id="font-icon">
                <rect id="Rectangle" x="0" y="0" width="14" height="14"></rect>
                <rect id="Background" stroke="#545454" fill="#979797" x="2.5" y="2.5" width="9" height="9"></rect>
                <path d="M9.73046875,5.73046875 L9.4296875,5.73046875 C9.35416629,5.51432184 9.22070408,5.28450643 9.02929688,5.04101562 C8.83788967,4.79752482 8.65625086,4.66406262 8.484375,4.640625 C8.40624961,4.63020828 8.30208398,4.62109379 8.171875,4.61328125 L7.92534732,4.60286457 L7.92534732,4.60286457 L6.94921875,4.6015625 L6.94921875,6.77734375 L7.5,6.77734375 C7.65625078,6.77734375 7.79166609,6.7597658 7.90625,6.72460938 C8.02083391,6.68945295 8.12239539,6.62630254 8.2109375,6.53515625 C8.27604199,6.47005176 8.3391924,6.36132889 8.40039062,6.20898438 C8.46158885,6.05663986 8.49869785,5.9257818 8.51171875,5.81640625 L8.80859375,5.81640625 L8.80859375,8.1484375 L8.51171875,8.1484375 C8.50130203,8.03124941 8.46093785,7.88867271 8.390625,7.72070312 C8.32031215,7.55273354 8.26041691,7.44140652 8.2109375,7.38671875 C8.13541629,7.303385 8.03906309,7.24153666 7.921875,7.20117188 C7.80468691,7.16080709 7.66406332,7.140625 7.5,7.140625 L6.94921875,7.140625 L6.94921875,8.9765625 C6.94921875,9.07031297 6.9667967,9.15039029 7.00195312,9.21679688 C7.03710955,9.28320346 7.10416617,9.33723937 7.203125,9.37890625 C7.26041695,9.40234387 7.33919221,9.42382803 7.43945312,9.44335938 C7.53971404,9.46289072 7.63932242,9.47786453 7.73828125,9.48828125 L7.73828125,9.79296875 L4.75,9.79296875 L4.75,9.48828125 L5.05078125,9.45507812 L5.05078125,9.45507812 L5.20996108,9.43115236 C5.25358076,9.42236332 5.28776029,9.41276047 5.3125,9.40234375 C5.40625047,9.36588523 5.47135398,9.31510449 5.5078125,9.25 C5.54427102,9.18489551 5.5625,9.10156301 5.5625,9 L5.5625,5.08984375 C5.5625,5.00130164 5.54622412,4.92382846 5.51367188,4.85742188 C5.48111963,4.79101529 5.41406301,4.7356773 5.3125,4.69140625 C5.23958297,4.66015609 5.14322977,4.63151055 5.0234375,4.60546875 L4.82204862,4.56553818 C4.79484961,4.56090857 4.77083344,4.55729168 4.75,4.5546875 L4.75,4.25 L9.73046875,4.25 L9.73046875,5.73046875 Z" id="F" fill="#545454" fill-rule="nonzero"></path>
            </g>
        </g>
    </g>
</svg>