<svg width="110px" height="27px" viewBox="0 0 110 27" version="1.1" xmlns="http://www.w3.org/2000/svg" xmlns:xlink="http://www.w3.org/1999/xlink">
    <g id="Page-1" stroke="none" stroke-width="1" fill="none" fill-rule="evenodd">
        <g id="Desktop-HD-Copy" transform="translate(-1160.000000, -3728.000000)">
            <path d="M1269.5,3728.5 L1160.89097,3728.5 L1168.82578,3741.5 L1160.89097,3754.5 L1269.5,3754.5 L1269.5,3728.5 Z" id="Path-3" stroke="#C3811C" fill="#EE9F31"></path>
            <path d="M1186.81997,3742.65625 C1187.9059,3742.91406 1188.32778,3743.17969 1188.32778,3743.78125 C1188.32778,3744.40625 1187.7809,3744.79688 1186.81997,3744.875 L1186.81997,3742.65625 Z M1186.12465,3740.03906 C1185.1559,3739.78906 1184.69497,3739.46094 1184.69497,3738.89844 C1184.69497,3738.32031 1185.18715,3737.91406 1186.12465,3737.84375 L1186.12465,3740.03906 Z M1186.81997,3740.19531 L1186.81997,3737.85938 C1187.64809,3737.96094 1188.18715,3738.38281 1188.30434,3739.14844 L1190.76528,3739.14844 C1190.68715,3737.21875 1189.24184,3735.95312 1186.81997,3735.82031 L1186.81997,3734.59375 L1186.12465,3734.59375 L1186.12465,3735.8125 C1183.76528,3735.89062 1182.06997,3737.16406 1182.06997,3739.15625 C1182.06997,3740.92188 1183.23403,3741.86719 1185.32778,3742.32812 L1186.12465,3742.5 L1186.12465,3744.875 C1185.1559,3744.80469 1184.58559,3744.34375 1184.46059,3743.625 L1181.98403,3743.625 C1182.03872,3745.65625 1183.69497,3746.84375 1186.12465,3746.91406 L1186.12465,3748.10156 L1186.81997,3748.10156 L1186.81997,3746.90625 C1189.2809,3746.77344 1190.93715,3745.5 1190.93715,3743.47656 C1190.93715,3741.72656 1189.82778,3740.85156 1187.62465,3740.36719 L1186.81997,3740.19531 Z M1198.29271,3747 L1201.00365,3747 L1201.00365,3745.07812 L1202.43333,3745.07812 L1202.43333,3742.85156 L1201.00365,3742.85156 L1201.00365,3735.72656 L1197.01927,3735.72656 L1196.26523,3736.86243 C1194.60228,3739.3866 1193.59056,3741.06738 1192.7224,3742.74219 L1192.7224,3745.07812 L1198.29271,3745.07812 L1198.29271,3747 Z M1195.12083,3742.875 C1196.02708,3741.125 1196.94115,3739.67188 1198.31615,3737.69531 L1198.37083,3737.69531 L1198.37083,3742.95312 L1195.12083,3742.95312 L1195.12083,3742.875 Z M1208.64826,3747.28125 C1211.63264,3747.28125 1213.47639,3745.01562 1213.47639,3741.33594 C1213.47639,3737.63281 1211.61701,3735.4375 1208.64826,3735.4375 C1205.68733,3735.4375 1203.81233,3737.64062 1203.81233,3741.34375 C1203.81233,3745.03125 1205.66389,3747.28125 1208.64826,3747.28125 Z M1208.64826,3745.04688 C1207.46076,3745.04688 1206.72639,3743.80469 1206.72639,3741.33594 C1206.72639,3738.88281 1207.46076,3737.67188 1208.64826,3737.67188 C1209.83576,3737.67188 1210.56233,3738.875 1210.56233,3741.34375 C1210.56233,3743.80469 1209.84358,3745.04688 1208.64826,3745.04688 Z M1227.07431,3742.65625 C1228.16024,3742.91406 1228.58212,3743.17969 1228.58212,3743.78125 C1228.58212,3744.40625 1228.03524,3744.79688 1227.07431,3744.875 L1227.07431,3742.65625 Z M1226.37899,3740.03906 C1225.41024,3739.78906 1224.94931,3739.46094 1224.94931,3738.89844 C1224.94931,3738.32031 1225.44149,3737.91406 1226.37899,3737.84375 L1226.37899,3740.03906 Z M1227.07431,3740.19531 L1227.07431,3737.85938 C1227.90243,3737.96094 1228.44149,3738.38281 1228.55868,3739.14844 L1231.01962,3739.14844 C1230.94149,3737.21875 1229.49618,3735.95312 1227.07431,3735.82031 L1227.07431,3734.59375 L1226.37899,3734.59375 L1226.37899,3735.8125 C1224.01962,3735.89062 1222.32431,3737.16406 1222.32431,3739.15625 C1222.32431,3740.92188 1223.48837,3741.86719 1225.58212,3742.32812 L1226.37899,3742.5 L1226.37899,3744.875 C1225.41024,3744.80469 1224.83993,3744.34375 1224.71493,3743.625 L1222.23837,3743.625 C1222.29306,3745.65625 1223.94931,3746.84375 1226.37899,3746.91406 L1226.37899,3748.10156 L1227.07431,3748.10156 L1227.07431,3746.90625 C1229.53524,3746.77344 1231.19149,3745.5 1231.19149,3743.47656 C1231.19149,3741.72656 1230.08212,3740.85156 1227.87899,3740.36719 L1227.07431,3740.19531 Z M1237.87517,3747.28125 C1240.72674,3747.28125 1242.7033,3745.9375 1242.7033,3743.95312 C1242.7033,3742.42969 1241.55486,3741.35938 1239.96892,3741.08594 L1239.96892,3741.03125 C1241.33611,3740.72656 1242.28924,3739.75781 1242.28924,3738.52344 C1242.28924,3736.73438 1240.49236,3735.44531 1237.87517,3735.44531 C1235.2658,3735.44531 1233.46111,3736.73438 1233.46111,3738.51562 C1233.46111,3739.76562 1234.42205,3740.72656 1235.79705,3741.03125 L1235.79705,3741.08594 C1234.21111,3741.35938 1233.05486,3742.42188 1233.05486,3743.94531 C1233.05486,3745.9375 1235.0158,3747.28125 1237.87517,3747.28125 Z M1237.87517,3745.3125 C1236.80486,3745.3125 1236.06267,3744.64844 1236.06267,3743.73438 C1236.06267,3742.84375 1236.80486,3742.1875 1237.87517,3742.1875 C1238.9533,3742.1875 1239.69549,3742.83594 1239.69549,3743.73438 C1239.69549,3744.64844 1238.9533,3745.3125 1237.87517,3745.3125 Z M1237.87517,3740.21875 C1236.9533,3740.21875 1236.29705,3739.64062 1236.29705,3738.8125 C1236.29705,3737.97656 1236.9533,3737.40625 1237.87517,3737.40625 C1238.79705,3737.40625 1239.46892,3737.97656 1239.46892,3738.8125 C1239.46892,3739.64062 1238.79705,3740.21875 1237.87517,3740.21875 Z M1249.07448,3747.28125 C1252.05885,3747.28125 1253.9026,3745.01562 1253.9026,3741.33594 C1253.9026,3737.63281 1252.04323,3735.4375 1249.07448,3735.4375 C1246.11354,3735.4375 1244.23854,3737.64062 1244.23854,3741.34375 C1244.23854,3745.03125 1246.0901,3747.28125 1249.07448,3747.28125 Z M1249.07448,3745.04688 C1247.88698,3745.04688 1247.1526,3743.80469 1247.1526,3741.33594 C1247.1526,3738.88281 1247.88698,3737.67188 1249.07448,3737.67188 C1250.26198,3737.67188 1250.98854,3738.875 1250.98854,3741.34375 C1250.98854,3743.80469 1250.26979,3745.04688 1249.07448,3745.04688 Z" id="$40$80" fill="#71490A" fill-rule="nonzero"></path>
            <line x1="1186.5" y1="3735" x2="1186.5" y2="3747.5" id="Line-4" stroke="#71490A" stroke-width="2" stroke-linecap="square"></line>
            <line x1="1226.6" y1="3735" x2="1226.6" y2="3747.5" id="Line-4-Copy" stroke="#71490A" stroke-width="2" stroke-linecap="square"></line>
            <line x1="1224" y1="3747" x2="1255" y2="3738" id="Line-3" stroke="#CC4338" stroke-width="2" stroke-linecap="square"></line>
        </g>
    </g>
</svg>
