<svg width="110px" height="27px" viewBox="0 0 110 27" version="1.1" xmlns="http://www.w3.org/2000/svg" xmlns:xlink="http://www.w3.org/1999/xlink">
    <g id="Page-1" stroke="none" stroke-width="1" fill="none" fill-rule="evenodd">
        <g id="Desktop-HD-Copy" transform="translate(-1160.000000, -3728.000000)">
            <g id="Group-3" transform="translate(1160.000000, 3728.000000)">
                <path d="M109.5,0.5 L0.890965005,0.5 L8.82577982,13.5 L0.890965005,26.5 L109.5,26.5 L109.5,0.5 Z" id="Path-3" stroke="#C3811C" fill="#EE9F31"></path>
                <path d="M26.8199653,14.65625 C27.9059028,14.9140625 28.3277778,15.1796875 28.3277778,15.78125 C28.3277778,16.40625 27.7809028,16.796875 26.8199653,16.875 L26.8199653,14.65625 Z M26.1246528,12.0390625 C25.1559028,11.7890625 24.6949653,11.4609375 24.6949653,10.8984375 C24.6949653,10.3203125 25.1871528,9.9140625 26.1246528,9.84375 L26.1246528,12.0390625 Z M26.8199653,12.1953125 L26.8199653,9.859375 C27.6480903,9.9609375 28.1871528,10.3828125 28.3043403,11.1484375 L30.7652778,11.1484375 C30.6871528,9.21875 29.2418403,7.953125 26.8199653,7.8203125 L26.8199653,6.59375 L26.1246528,6.59375 L26.1246528,7.8125 C23.7652778,7.890625 22.0699653,9.1640625 22.0699653,11.15625 C22.0699653,12.921875 23.2340278,13.8671875 25.3277778,14.328125 L26.1246528,14.5 L26.1246528,16.875 C25.1559028,16.8046875 24.5855903,16.34375 24.4605903,15.625 L21.9840278,15.625 C22.0387153,17.65625 23.6949653,18.84375 26.1246528,18.9140625 L26.1246528,20.1015625 L26.8199653,20.1015625 L26.8199653,18.90625 C29.2809028,18.7734375 30.9371528,17.5 30.9371528,15.4765625 C30.9371528,13.7265625 29.8277778,12.8515625 27.6246528,12.3671875 L26.8199653,12.1953125 Z M38.2927083,19 L41.0036458,19 L41.0036458,17.078125 L42.4333333,17.078125 L42.4333333,14.8515625 L41.0036458,14.8515625 L41.0036458,7.7265625 L37.0192708,7.7265625 L36.2652273,8.86242676 C34.6022786,11.3865967 33.5905599,13.0673828 32.7223958,14.7421875 L32.7223958,17.078125 L38.2927083,17.078125 L38.2927083,19 Z M35.1208333,14.875 C36.0270833,13.125 36.9411458,11.671875 38.3161458,9.6953125 L38.3708333,9.6953125 L38.3708333,14.953125 L35.1208333,14.953125 L35.1208333,14.875 Z M48.6482639,19.28125 C51.6326389,19.28125 53.4763889,17.015625 53.4763889,13.3359375 C53.4763889,9.6328125 51.6170139,7.4375 48.6482639,7.4375 C45.6873264,7.4375 43.8123264,9.640625 43.8123264,13.34375 C43.8123264,17.03125 45.6638889,19.28125 48.6482639,19.28125 Z M48.6482639,17.046875 C47.4607639,17.046875 46.7263889,15.8046875 46.7263889,13.3359375 C46.7263889,10.8828125 47.4607639,9.671875 48.6482639,9.671875 C49.8357639,9.671875 50.5623264,10.875 50.5623264,13.34375 C50.5623264,15.8046875 49.8435764,17.046875 48.6482639,17.046875 Z M67.0743056,14.65625 C68.1602431,14.9140625 68.5821181,15.1796875 68.5821181,15.78125 C68.5821181,16.40625 68.0352431,16.796875 67.0743056,16.875 L67.0743056,14.65625 Z M66.3789931,12.0390625 C65.4102431,11.7890625 64.9493056,11.4609375 64.9493056,10.8984375 C64.9493056,10.3203125 65.4414931,9.9140625 66.3789931,9.84375 L66.3789931,12.0390625 Z M67.0743056,12.1953125 L67.0743056,9.859375 C67.9024306,9.9609375 68.4414931,10.3828125 68.5586806,11.1484375 L71.0196181,11.1484375 C70.9414931,9.21875 69.4961806,7.953125 67.0743056,7.8203125 L67.0743056,6.59375 L66.3789931,6.59375 L66.3789931,7.8125 C64.0196181,7.890625 62.3243056,9.1640625 62.3243056,11.15625 C62.3243056,12.921875 63.4883681,13.8671875 65.5821181,14.328125 L66.3789931,14.5 L66.3789931,16.875 C65.4102431,16.8046875 64.8399306,16.34375 64.7149306,15.625 L62.2383681,15.625 C62.2930556,17.65625 63.9493056,18.84375 66.3789931,18.9140625 L66.3789931,20.1015625 L67.0743056,20.1015625 L67.0743056,18.90625 C69.5352431,18.7734375 71.1914931,17.5 71.1914931,15.4765625 C71.1914931,13.7265625 70.0821181,12.8515625 67.8789931,12.3671875 L67.0743056,12.1953125 Z M77.8751736,19.28125 C80.7267361,19.28125 82.7032986,17.9375 82.7032986,15.953125 C82.7032986,14.4296875 81.5548611,13.359375 79.9689236,13.0859375 L79.9689236,13.03125 C81.3361111,12.7265625 82.2892361,11.7578125 82.2892361,10.5234375 C82.2892361,8.734375 80.4923611,7.4453125 77.8751736,7.4453125 C75.2657986,7.4453125 73.4611111,8.734375 73.4611111,10.515625 C73.4611111,11.765625 74.4220486,12.7265625 75.7970486,13.03125 L75.7970486,13.0859375 C74.2111111,13.359375 73.0548611,14.421875 73.0548611,15.9453125 C73.0548611,17.9375 75.0157986,19.28125 77.8751736,19.28125 Z M77.8751736,17.3125 C76.8048611,17.3125 76.0626736,16.6484375 76.0626736,15.734375 C76.0626736,14.84375 76.8048611,14.1875 77.8751736,14.1875 C78.9532986,14.1875 79.6954861,14.8359375 79.6954861,15.734375 C79.6954861,16.6484375 78.9532986,17.3125 77.8751736,17.3125 Z M77.8751736,12.21875 C76.9532986,12.21875 76.2970486,11.640625 76.2970486,10.8125 C76.2970486,9.9765625 76.9532986,9.40625 77.8751736,9.40625 C78.7970486,9.40625 79.4689236,9.9765625 79.4689236,10.8125 C79.4689236,11.640625 78.7970486,12.21875 77.8751736,12.21875 Z M89.0744792,19.28125 C92.0588542,19.28125 93.9026042,17.015625 93.9026042,13.3359375 C93.9026042,9.6328125 92.0432292,7.4375 89.0744792,7.4375 C86.1135417,7.4375 84.2385417,9.640625 84.2385417,13.34375 C84.2385417,17.03125 86.0901042,19.28125 89.0744792,19.28125 Z M89.0744792,17.046875 C87.8869792,17.046875 87.1526042,15.8046875 87.1526042,13.3359375 C87.1526042,10.8828125 87.8869792,9.671875 89.0744792,9.671875 C90.2619792,9.671875 90.9885417,10.875 90.9885417,13.34375 C90.9885417,15.8046875 90.2697917,17.046875 89.0744792,17.046875 Z" id="$40$80" fill="#71490A" fill-rule="nonzero"></path>
                <line x1="26.5" y1="7" x2="26.5" y2="19.5" id="dollor-40" stroke="#71490A" stroke-width="2" stroke-linecap="square"></line>
                <line x1="66.6" y1="7" x2="66.6" y2="19.5" id="dollor-80" stroke="#71490A" stroke-width="2" stroke-linecap="square"></line>
                <line x1="64" y1="19" x2="95" y2="10" id="striketrough" stroke="#CC4338" stroke-width="2" stroke-linecap="square"></line>
            </g>
        </g>
    </g>
</svg>
