<svg width="193px" height="27px" viewBox="0 0 193 27" version="1.1" xmlns="http://www.w3.org/2000/svg" xmlns:xlink="http://www.w3.org/1999/xlink">
    <g id="Page-1" stroke="none" stroke-width="1" fill="none" fill-rule="evenodd">
        <g id="Desktop-HD-Copy" transform="translate(-1095.000000, -3726.000000)">
            <g id="Group-3" transform="translate(1095.000000, 3726.000000)">
                <path d="M192.5,0.5 L0.890965005,0.5 L8.82577982,13.5 L0.890965005,26.5 L192.5,26.5 L192.5,0.5 Z" id="Path-3" stroke="#C3811C" fill="#EE9F31"></path>
                <path d="M23.7265625,16.6962891 L19.8574219,16.6962891 L19.8574219,9.13574219 L16.9589844,9.13574219 L16.9589844,19 L23.7265625,19 L23.7265625,16.6962891 Z M31.328125,19 L34.4179688,19 L31.1982422,9.13574219 L27.5615234,9.13574219 L24.3417969,19 L27.2949219,19 L27.8076172,17.0380859 L30.8154297,17.0380859 L31.328125,19 Z M29.2841797,11.4121094 L29.3388672,11.4121094 L30.2890625,14.9941406 L28.3339844,14.9941406 L29.2841797,11.4121094 Z M38.2050781,9.13574219 L35.3066406,9.13574219 L35.3066406,15.4863281 C35.3066406,17.7353516 37.0498047,19.1708984 39.6542969,19.1708984 C42.2587891,19.1708984 44.0019531,17.7353516 44.0019531,15.4863281 L44.0019531,9.13574219 L41.1035156,9.13574219 L41.1035156,15.1650391 C41.1035156,16.2041016 40.5908203,16.7714844 39.6542969,16.7714844 C38.7177734,16.7714844 38.2050781,16.2041016 38.2050781,15.1650391 L38.2050781,9.13574219 Z M48.1035156,19 L48.1035156,13.8046875 L48.1582031,13.8046875 L51.9931641,19 L54.2148438,19 L54.2148438,9.13574219 L51.4804688,9.13574219 L51.4804688,14.2490234 L51.4257812,14.2490234 L47.6181641,9.13574219 L45.3691406,9.13574219 L45.3691406,19 L48.1035156,19 Z M60.2373047,19.1708984 C62.8964844,19.1708984 64.8173828,17.4824219 64.8310547,15.0214844 L62.0556641,15.0214844 C61.9667969,16.1630859 61.2421875,16.8945312 60.2441406,16.8945312 C59.0410156,16.8945312 58.2958984,15.8417969 58.2958984,14.0576172 C58.2958984,12.2939453 59.0478516,11.2412109 60.2373047,11.2412109 C61.2421875,11.2412109 61.9736328,11.9863281 62.0419922,13.1074219 L64.8173828,13.1074219 C64.8105469,10.6601562 62.8417969,8.96484375 60.2373047,8.96484375 C57.2226562,8.96484375 55.3427734,10.8105469 55.3427734,14.0644531 C55.3427734,17.3183594 57.2158203,19.1708984 60.2373047,19.1708984 Z M75.1943359,19 L75.1943359,9.13574219 L72.2958984,9.13574219 L72.2958984,12.8818359 L68.8232422,12.8818359 L68.8232422,9.13574219 L65.9248047,9.13574219 L65.9248047,19 L68.8232422,19 L68.8232422,15.1855469 L72.2958984,15.1855469 L72.2958984,19 L75.1943359,19 Z M79.2275391,9.13574219 L79.2275391,19 L83.4453125,19 C86.4326172,19 88.1962891,17.1542969 88.1962891,13.9960938 C88.1962891,10.8378906 86.4394531,9.13574219 83.4453125,9.13574219 L79.2275391,9.13574219 Z M82.1259766,11.4394531 L83.0351562,11.4394531 C84.4228516,11.4394531 85.2431641,12.3349609 85.2431641,13.9960938 C85.2431641,15.8144531 84.484375,16.6962891 83.0351562,16.6962891 L82.1259766,16.6962891 L82.1259766,11.4394531 Z M95.8320312,19 L98.921875,19 L95.7021484,9.13574219 L92.0654297,9.13574219 L88.8457031,19 L91.7988281,19 L92.3115234,17.0380859 L95.3193359,17.0380859 L95.8320312,19 Z M93.7880859,11.4121094 L93.8427734,11.4121094 L94.7929688,14.9941406 L92.8378906,14.9941406 L93.7880859,11.4121094 Z M105.600586,19 L105.600586,15.8759766 L108.970703,9.13574219 L105.942383,9.13574219 L104.212891,13.1347656 L104.158203,13.1347656 L102.428711,9.13574219 L99.3320312,9.13574219 L102.702148,15.8759766 L102.702148,19 L105.600586,19 Z M112.525391,9.13574219 L112.525391,19 L116.743164,19 C119.730469,19 121.494141,17.1542969 121.494141,13.9960938 C121.494141,10.8378906 119.737305,9.13574219 116.743164,9.13574219 L112.525391,9.13574219 Z M115.423828,11.4394531 L116.333008,11.4394531 C117.720703,11.4394531 118.541016,12.3349609 118.541016,13.9960938 C118.541016,15.8144531 117.782227,16.6962891 116.333008,16.6962891 L115.423828,16.6962891 L115.423828,11.4394531 Z M125.520508,19 L125.520508,9.13574219 L122.62207,9.13574219 L122.62207,19 L125.520508,19 Z M126.614258,16.0126953 C126.621094,18.0292969 128.30957,19.1708984 130.866211,19.1708984 C133.586914,19.1708984 135.172852,17.8789062 135.172852,15.8486328 C135.172852,14.2490234 134.174805,13.3808594 132.055664,12.9980469 L131.064453,12.8203125 C130.080078,12.6425781 129.65625,12.4306641 129.65625,11.9863281 C129.65625,11.5419922 130.066406,11.1865234 130.873047,11.1865234 C131.666016,11.1865234 132.28125,11.5351562 132.301758,12.1367188 L134.967773,12.1367188 C134.954102,10.1884766 133.477539,8.96484375 130.838867,8.96484375 C128.494141,8.96484375 126.785156,10.2158203 126.785156,12.1982422 C126.785156,13.7294922 127.858398,14.7207031 129.820312,15.0693359 L130.811523,15.2470703 C131.918945,15.4453125 132.301758,15.6435547 132.301758,16.1083984 C132.301758,16.59375 131.768555,16.9492188 130.900391,16.9492188 C130.080078,16.9492188 129.389648,16.6074219 129.280273,16.0126953 L126.614258,16.0126953 Z M140.908203,19.1708984 C143.567383,19.1708984 145.488281,17.4824219 145.501953,15.0214844 L142.726562,15.0214844 C142.637695,16.1630859 141.913086,16.8945312 140.915039,16.8945312 C139.711914,16.8945312 138.966797,15.8417969 138.966797,14.0576172 C138.966797,12.2939453 139.71875,11.2412109 140.908203,11.2412109 C141.913086,11.2412109 142.644531,11.9863281 142.712891,13.1074219 L145.488281,13.1074219 C145.481445,10.6601562 143.512695,8.96484375 140.908203,8.96484375 C137.893555,8.96484375 136.013672,10.8105469 136.013672,14.0644531 C136.013672,17.3183594 137.886719,19.1708984 140.908203,19.1708984 Z M151.326172,8.96484375 C148.277344,8.96484375 146.356445,10.9199219 146.356445,14.0712891 C146.356445,17.2226562 148.270508,19.1708984 151.326172,19.1708984 C154.375,19.1708984 156.295898,17.2226562 156.295898,14.0712891 C156.295898,10.9199219 154.375,8.96484375 151.326172,8.96484375 Z M151.326172,11.2753906 C152.536133,11.2753906 153.342773,12.3623047 153.342773,14.0712891 C153.342773,15.7734375 152.542969,16.8603516 151.326172,16.8603516 C150.109375,16.8603516 149.30957,15.7734375 149.30957,14.0712891 C149.30957,12.3623047 150.116211,11.2753906 151.326172,11.2753906 Z M160.322266,9.13574219 L157.423828,9.13574219 L157.423828,15.4863281 C157.423828,17.7353516 159.166992,19.1708984 161.771484,19.1708984 C164.375977,19.1708984 166.119141,17.7353516 166.119141,15.4863281 L166.119141,9.13574219 L163.220703,9.13574219 L163.220703,15.1650391 C163.220703,16.2041016 162.708008,16.7714844 161.771484,16.7714844 C160.834961,16.7714844 160.322266,16.2041016 160.322266,15.1650391 L160.322266,9.13574219 Z M170.220703,19 L170.220703,13.8046875 L170.275391,13.8046875 L174.110352,19 L176.332031,19 L176.332031,9.13574219 L173.597656,9.13574219 L173.597656,14.2490234 L173.542969,14.2490234 L169.735352,9.13574219 L167.486328,9.13574219 L167.486328,19 L170.220703,19 Z M182.819336,19 L179.920898,19 L179.920898,11.4394531 L177.323242,11.4394531 L177.323242,9.13574219 L185.416992,9.13574219 L185.416992,11.4394531 L182.819336,11.4394531 L182.819336,19 Z" id="LAUNCHDAYDISCOUNT" fill="#71490A" fill-rule="nonzero"></path>
            </g>
        </g>
    </g>
</svg>
