<svg width="255px" height="27px" viewBox="0 0 255 27" version="1.1" xmlns="http://www.w3.org/2000/svg" xmlns:xlink="http://www.w3.org/1999/xlink">
    <g id="Page-1" stroke="none" stroke-width="1" fill="none" fill-rule="evenodd">
        <g id="Desktop-HD-Copy" transform="translate(-1056.000000, -3701.000000)">
            <g id="Group-3" transform="translate(1056.000000, 3701.000000)">
                <path d="M254.5,0.5 L0.890965005,0.5 L8.82577982,13.5 L0.890965005,26.5 L254.5,26.5 L254.5,0.5 Z" id="Path-3" stroke="#C3811C" fill="#EE9F31"></path>
                <path d="M22.421875,19.28125 C25.1328125,19.28125 26.9609375,17.640625 26.9609375,15.203125 C26.9609375,13.0703125 25.4296875,11.53125 23.296875,11.53125 C22.125,11.53125 21.203125,12.0234375 20.7578125,12.78125 L20.703125,12.78125 L20.9296875,9.9296875 L26.2578125,9.9296875 L26.2578125,7.7265625 L18.671875,7.7265625 L18.1875,14.4453125 L20.671875,14.4453125 C20.9765625,13.8828125 21.59375,13.4765625 22.421875,13.4765625 C23.5078125,13.4765625 24.2578125,14.2109375 24.2578125,15.2734375 C24.2578125,16.3359375 23.515625,17.078125 22.421875,17.078125 C21.4765625,17.078125 20.7421875,16.5390625 20.6015625,15.6875 L18,15.6875 C18.0390625,17.796875 19.8671875,19.28125 22.421875,19.28125 Z M32.90625,19.28125 C35.890625,19.28125 37.734375,17.015625 37.734375,13.3359375 C37.734375,9.6328125 35.875,7.4375 32.90625,7.4375 C29.9453125,7.4375 28.0703125,9.640625 28.0703125,13.34375 C28.0703125,17.03125 29.921875,19.28125 32.90625,19.28125 Z M32.90625,17.046875 C31.71875,17.046875 30.984375,15.8046875 30.984375,13.3359375 C30.984375,10.8828125 31.71875,9.671875 32.90625,9.671875 C34.09375,9.671875 34.8203125,10.875 34.8203125,13.34375 C34.8203125,15.8046875 34.1015625,17.046875 32.90625,17.046875 Z M41.5625,13.7265625 C43.3046875,13.7265625 44.4296875,12.546875 44.4296875,10.6171875 C44.4296875,8.65625 43.2890625,7.53125 41.5625,7.53125 C39.8359375,7.53125 38.703125,8.6640625 38.703125,10.6171875 C38.703125,12.5546875 39.828125,13.7265625 41.5625,13.7265625 Z M41.5625,12.1953125 C41.046875,12.1953125 40.6796875,11.7421875 40.6796875,10.6171875 C40.6796875,9.484375 41.046875,9.0703125 41.5625,9.0703125 C42.09375,9.0703125 42.4453125,9.484375 42.4453125,10.6171875 C42.4453125,11.7421875 42.0859375,12.1953125 41.5625,12.1953125 Z M42.9453125,19 L50.46875,7.7265625 L48.5625,7.7265625 L41.03125,19 L42.9453125,19 Z M49.9375,19.1875 C51.6796875,19.1875 52.796875,18 52.796875,16.0703125 C52.796875,14.109375 51.6640625,12.9921875 49.9375,12.9921875 C48.2109375,12.9921875 47.0703125,14.1171875 47.0703125,16.078125 C47.0703125,18.015625 48.203125,19.1875 49.9375,19.1875 Z M49.9375,17.6484375 C49.4140625,17.6484375 49.0546875,17.1953125 49.0546875,16.078125 C49.0546875,14.9375 49.4140625,14.5234375 49.9375,14.5234375 C50.4609375,14.5234375 50.8203125,14.9453125 50.8203125,16.078125 C50.8203125,17.1953125 50.4609375,17.6484375 49.9375,17.6484375 Z" id="50%" fill="#B9422C" fill-rule="nonzero"></path>
                <line x1="41.6171875" y1="19.5" x2="49.6171875" y2="7.5" id="Line-10" stroke="#B9422C" stroke-width="2" stroke-linecap="round"></line>
                <path d="M65.5,16.6875 L60.8359375,16.6875 L60.8359375,7.7265625 L57.96875,7.7265625 L57.96875,19 L65.5,19 L65.5,16.6875 Z M74.2265625,19 L77.2734375,19 L73.484375,7.7265625 L69.9765625,7.7265625 L66.1875,19 L69.109375,19 L69.828125,16.5234375 L73.515625,16.5234375 L74.2265625,19 Z M71.640625,10.1171875 L71.703125,10.1171875 L72.953125,14.4609375 L70.3828125,14.4609375 L71.640625,10.1171875 Z M80.859375,7.7265625 L77.9921875,7.7265625 L77.9921875,15 C77.9921875,17.53125 79.9140625,19.1953125 82.8515625,19.1953125 C85.78125,19.1953125 87.703125,17.53125 87.703125,15 L87.703125,7.7265625 L84.8359375,7.7265625 L84.8359375,14.6953125 C84.8359375,16.0078125 84.125,16.7890625 82.8515625,16.7890625 C81.5703125,16.7890625 80.859375,16.0078125 80.859375,14.6953125 L80.859375,7.7265625 Z M92.125,19 L92.125,12.3828125 L92.1875,12.3828125 L96.9921875,19 L99.2578125,19 L99.2578125,7.7265625 L96.5390625,7.7265625 L96.5390625,14.28125 L96.4765625,14.28125 L91.6953125,7.7265625 L89.40625,7.7265625 L89.40625,19 L92.125,19 Z M106.125,19.1953125 C109.03125,19.1953125 111.109375,17.4296875 111.242188,14.75 L108.484375,14.75 C108.304688,16.0703125 107.390625,16.8984375 106.132812,16.8984375 C104.554688,16.8984375 103.570312,15.5625 103.570312,13.3515625 C103.570312,11.1640625 104.5625,9.828125 106.125,9.828125 C107.382812,9.828125 108.328125,10.703125 108.46875,12.03125 L111.226562,12.03125 C111.140625,9.3671875 108.976562,7.53125 106.125,7.53125 C102.765625,7.53125 100.648438,9.6796875 100.648438,13.359375 C100.648438,17.046875 102.75,19.1953125 106.125,19.1953125 Z M122.804688,19 L122.804688,7.7265625 L119.945312,7.7265625 L119.945312,12.1484375 L115.453125,12.1484375 L115.453125,7.7265625 L112.585938,7.7265625 L112.585938,19 L115.453125,19 L115.453125,14.4609375 L119.945312,14.4609375 L119.945312,19 L122.804688,19 Z M127.617188,7.7265625 L127.617188,19 L132.195312,19 C135.59375,19 137.601562,16.8984375 137.601562,13.296875 C137.601562,9.703125 135.601562,7.7265625 132.195312,7.7265625 L127.617188,7.7265625 Z M130.484375,10.0390625 L131.820312,10.0390625 C133.632812,10.0390625 134.6875,11.1875 134.6875,13.3046875 C134.6875,15.5546875 133.6875,16.6875 131.820312,16.6875 L130.484375,16.6875 L130.484375,10.0390625 Z M145.851562,19 L148.898438,19 L145.109375,7.7265625 L141.601562,7.7265625 L137.8125,19 L140.734375,19 L141.453125,16.5234375 L145.140625,16.5234375 L145.851562,19 Z M143.265625,10.1171875 L143.328125,10.1171875 L144.578125,14.4609375 L142.007812,14.4609375 L143.265625,10.1171875 Z M154.453125,19 L154.453125,15.125 L158.335938,7.7265625 L155.3125,7.7265625 L153.078125,12.4140625 L153.023438,12.4140625 L150.78125,7.7265625 L147.703125,7.7265625 L151.585938,15.125 L151.585938,19 L154.453125,19 Z M162.515625,7.7265625 L162.515625,19 L167.09375,19 C170.492188,19 172.5,16.8984375 172.5,13.296875 C172.5,9.703125 170.5,7.7265625 167.09375,7.7265625 L162.515625,7.7265625 Z M165.382812,10.0390625 L166.71875,10.0390625 C168.53125,10.0390625 169.585938,11.1875 169.585938,13.3046875 C169.585938,15.5546875 168.585938,16.6875 166.71875,16.6875 L165.382812,16.6875 L165.382812,10.0390625 Z M176.757812,19 L176.757812,7.7265625 L173.890625,7.7265625 L173.890625,19 L176.757812,19 Z M178.09375,15.6796875 C178.132812,17.8984375 179.992188,19.1953125 182.804688,19.1953125 C185.78125,19.1953125 187.554688,17.7578125 187.554688,15.4921875 C187.554688,13.71875 186.460938,12.7421875 184.054688,12.28125 L182.898438,12.0625 C181.671875,11.828125 181.15625,11.5 181.15625,10.90625 C181.15625,10.2421875 181.773438,9.7734375 182.8125,9.7734375 C183.851562,9.7734375 184.617188,10.2578125 184.664062,11.0703125 L187.328125,11.0703125 C187.296875,8.921875 185.625,7.53125 182.789062,7.53125 C180.195312,7.53125 178.3125,8.9296875 178.3125,11.1015625 C178.3125,12.8203125 179.476562,13.921875 181.726562,14.34375 L182.882812,14.5625 C184.21875,14.8203125 184.703125,15.140625 184.703125,15.765625 C184.703125,16.453125 183.976562,16.953125 182.859375,16.953125 C181.757812,16.953125 180.890625,16.484375 180.757812,15.6796875 L178.09375,15.6796875 Z M194.039062,19.1953125 C196.945312,19.1953125 199.023438,17.4296875 199.15625,14.75 L196.398438,14.75 C196.21875,16.0703125 195.304688,16.8984375 194.046875,16.8984375 C192.46875,16.8984375 191.484375,15.5625 191.484375,13.3515625 C191.484375,11.1640625 192.476562,9.828125 194.039062,9.828125 C195.296875,9.828125 196.242188,10.703125 196.382812,12.03125 L199.140625,12.03125 C199.054688,9.3671875 196.890625,7.53125 194.039062,7.53125 C190.679688,7.53125 188.5625,9.6796875 188.5625,13.359375 C188.5625,17.046875 190.664062,19.1953125 194.039062,19.1953125 Z M205.757812,7.53125 C202.34375,7.53125 200.1875,9.7734375 200.1875,13.3671875 C200.1875,16.9609375 202.335938,19.1953125 205.757812,19.1953125 C209.171875,19.1953125 211.320312,16.9609375 211.320312,13.3671875 C211.320312,9.7734375 209.171875,7.53125 205.757812,7.53125 Z M205.757812,9.859375 C207.359375,9.859375 208.40625,11.21875 208.40625,13.3671875 C208.40625,15.5078125 207.359375,16.8671875 205.757812,16.8671875 C204.148438,16.8671875 203.109375,15.5078125 203.109375,13.3671875 C203.109375,11.21875 204.15625,9.859375 205.757812,9.859375 Z M215.585938,7.7265625 L212.71875,7.7265625 L212.71875,15 C212.71875,17.53125 214.640625,19.1953125 217.578125,19.1953125 C220.507812,19.1953125 222.429688,17.53125 222.429688,15 L222.429688,7.7265625 L219.5625,7.7265625 L219.5625,14.6953125 C219.5625,16.0078125 218.851562,16.7890625 217.578125,16.7890625 C216.296875,16.7890625 215.585938,16.0078125 215.585938,14.6953125 L215.585938,7.7265625 Z M226.851562,19 L226.851562,12.3828125 L226.914062,12.3828125 L231.71875,19 L233.984375,19 L233.984375,7.7265625 L231.265625,7.7265625 L231.265625,14.28125 L231.203125,14.28125 L226.421875,7.7265625 L224.132812,7.7265625 L224.132812,19 L226.851562,19 Z M241.164062,19 L238.304688,19 L238.304688,10.0390625 L235.195312,10.0390625 L235.195312,7.7265625 L244.273438,7.7265625 L244.273438,10.0390625 L241.164062,10.0390625 L241.164062,19 Z" id="LAUNCHDAYDISCOUNT" fill="#71490A" fill-rule="nonzero"></path>
            </g>
        </g>
    </g>
</svg>
