<svg width="60px" height="60px" viewBox="0 0 60 60" version="1.1" xmlns="http://www.w3.org/2000/svg" xmlns:xlink="http://www.w3.org/1999/xlink">
    <g id="Page-1" stroke="none" stroke-width="1" fill="none" fill-rule="evenodd">
        <g id="Desktop-HD-Copy" transform="translate(-190.000000, -2058.000000)">
            <g id="editor-bullet-1" transform="translate(190.000000, 2058.000000)">
                <g id="Bullet-icon">
                    <rect id="Rectangle" fill="#351F43" x="0" y="0" width="60" height="60" rx="10"></rect>
                    <g id="format_align_right-24px" transform="translate(13.000000, 13.000000)"></g>
                    <path d="M17,43 L43,43 L43,40.1111111 L17,40.1111111 L17,43 Z M25.6666667,37.2222222 L43,37.2222222 L43,34.3333333 L25.6666667,34.3333333 L25.6666667,37.2222222 Z M17,31.4444444 L43,31.4444444 L43,28.5555556 L17,28.5555556 L17,31.4444444 Z M25.6666667,25.6666667 L43,25.6666667 L43,22.7777778 L25.6666667,22.7777778 L25.6666667,25.6666667 Z M17,17 L17,19.8888889 L43,19.8888889 L43,17 L17,17 Z" id="Shape" fill="#E69AFF" fill-rule="nonzero"></path>
                    <polygon id="Path" points="13 13 47 13 47 47 13 47"></polygon>
                </g>
            </g>
        </g>
    </g>
</svg>