<svg width="127px" height="22px" viewBox="0 0 127 22" version="1.1" xmlns="http://www.w3.org/2000/svg" xmlns:xlink="http://www.w3.org/1999/xlink">
    <g id="Page-1" stroke="none" stroke-width="1" fill="none" fill-rule="evenodd">
        <g id="Desktop-HD-Copy" transform="translate(-210.000000, -4231.000000)" fill="#FFFFFF">
            <g id="Group-4" transform="translate(235.000000, 4225.000000)" fill-rule="nonzero">
                <path d="M2.05078125,6.08984375 L2.05078125,23 L8.70703125,23 C13.7695312,23 16.640625,19.9179688 16.640625,14.421875 C16.640625,9.125 13.734375,6.08984375 8.70703125,6.08984375 L2.05078125,6.08984375 Z M5.58984375,9.11328125 L8.14453125,9.11328125 C11.2148438,9.11328125 13.03125,11.0585938 13.03125,14.4804688 C13.03125,18.0546875 11.2734375,19.9765625 8.14453125,19.9765625 L5.58984375,19.9765625 L5.58984375,9.11328125 Z M25.2421875,12.40625 C26.8359375,12.40625 27.8671875,13.4726562 27.9375,15.1835938 L22.4296875,15.1835938 C22.546875,13.5078125 23.6601562,12.40625 25.2421875,12.40625 Z M28.0078125,19.3203125 C27.6445312,20.1757812 26.71875,20.65625 25.3710938,20.65625 C23.5898438,20.65625 22.4648438,19.4609375 22.4179688,17.5390625 L22.4179688,17.3632812 L31.2890625,17.3632812 L31.2890625,16.3203125 C31.2890625,12.21875 29.0390625,9.79296875 25.2304688,9.79296875 C21.3867188,9.79296875 19.0195312,12.3945312 19.0195312,16.6015625 C19.0195312,20.796875 21.3398438,23.28125 25.2773438,23.28125 C28.4414062,23.28125 30.6796875,21.7460938 31.1835938,19.3203125 L28.0078125,19.3203125 Z M45.4101562,10.0742188 L41.8125,10.0742188 L39.1640625,19.7070312 L38.953125,19.7070312 L36.28125,10.0742188 L32.6132812,10.0742188 L37.1015625,23 L40.9453125,23 L45.4101562,10.0742188 Z M47.0742188,13.8710938 C47.0742188,15.7945851 48.2103662,16.9752109 50.5459478,17.5500922 L53.1445312,18.1367188 C54.28125,18.3828125 54.7734375,18.7695312 54.7734375,19.4023438 C54.7734375,20.234375 53.859375,20.7851562 52.5351562,20.7851562 C51.1757812,20.7851562 50.34375,20.28125 50.0859375,19.4023438 L46.7578125,19.4023438 C46.9921875,21.8867188 49.0546875,23.28125 52.4648438,23.28125 C55.8515625,23.28125 58.1601562,21.59375 58.1601562,19.015625 C58.1601562,17.0820312 57.0351562,16.0273438 54.5273438,15.4765625 L52.1015625,14.9492188 C50.90625,14.6796875 50.3554688,14.2929688 50.3554688,13.6601562 C50.3554688,12.8398438 51.2578125,12.2890625 52.4765625,12.2890625 C53.7421875,12.2890625 54.5273438,12.8046875 54.703125,13.6367188 L57.8554688,13.6367188 C57.6679688,11.1640625 55.734375,9.79296875 52.453125,9.79296875 C49.2304688,9.79296875 47.0742188,11.421875 47.0742188,13.8710938 Z M62.2148438,27.6992188 C65.3479818,27.6992188 66.9303747,26.5915437 68.0281598,23.4715923 L72.5742188,10.0742188 L68.9648438,10.0742188 L66.2460938,19.8710938 L66.0351562,19.8710938 L63.3164062,10.0742188 L59.5546875,10.0742188 L64.0898438,23.0820312 L63.9726562,23.5507812 C63.7070312,24.4804688 63.0441985,24.8979673 61.8953089,24.9414866 L61.6875,24.9453125 C61.546875,24.9453125 61.03125,24.9453125 60.9140625,24.921875 L60.9140625,27.6640625 C61.0546875,27.6875 62.0859375,27.6992188 62.2148438,27.6992188 Z M74.9414062,23 L78.3515625,23 L78.3515625,15.546875 C78.3515625,13.8476562 79.3242188,12.734375 80.90625,12.734375 C82.5234375,12.734375 83.2851562,13.671875 83.2851562,15.453125 L83.2851562,23 L86.6953125,23 L86.6953125,14.6445312 C86.6953125,11.5507812 85.1484375,9.79296875 82.2773438,9.79296875 C80.3671875,9.79296875 79.0546875,10.6953125 78.4570312,12.1484375 L78.2460938,12.1484375 L78.2460938,10.0742188 L74.9414062,10.0742188 L74.9414062,23 Z M101.4375,14.6328125 L98.25,14.6328125 C98.015625,13.4023438 97.1367188,12.59375 95.6835938,12.59375 C93.84375,12.59375 92.8125,13.9648438 92.8125,16.5078125 C92.8125,19.0859375 93.8554688,20.4804688 95.6835938,20.4804688 C97.078125,20.4804688 97.9921875,19.8007812 98.25,18.5234375 L101.4375,18.5234375 C101.15625,21.4179688 99.046875,23.28125 95.6835938,23.28125 C91.6523438,23.28125 89.3671875,20.84375 89.3671875,16.5078125 C89.3671875,12.21875 91.640625,9.79296875 95.6835938,9.79296875 C99.1054688,9.79296875 101.15625,11.6914062 101.4375,14.6328125 Z" id="Devsync"></path>
            </g>
            <g id="Group-5" transform="translate(204.000000, 4229.000000)">
                <path d="M22.8846154,5 L28,10.1180332 L25.0769231,10.1180332 L25.0769231,19 L9,19 L9,15.1610261 L11.1923077,17.3591821 L14.0480461,14.4837457 L20.6923077,14.4837457 L20.6923077,10.1180332 L17.7692308,10.1180332 L22.8846154,5 Z M25,2 L25,5.83897392 L22.8076923,3.64081785 L19.9519539,6.51625432 L13.3076923,6.51625432 L13.3076923,10.8819668 L16.2307692,10.8819668 L11.1153846,16 L6,10.8819668 L8.92307692,10.8819668 L8.92307692,2 L25,2 Z" id="Combined-Shape"></path>
            </g>
        </g>
    </g>
</svg>
