<svg width="60px" height="60px" viewBox="0 0 60 60" version="1.1" xmlns="http://www.w3.org/2000/svg" xmlns:xlink="http://www.w3.org/1999/xlink">
    <g id="Page-1" stroke="none" stroke-width="1" fill="none" fill-rule="evenodd">
        <g id="Desktop-HD-Copy" transform="translate(-190.000000, -2165.000000)">
            <g id="editor-bullet-1-copy" transform="translate(190.000000, 2165.000000)">
                <rect id="Rectangle" fill="#11525B" x="0" y="0" width="60" height="60" rx="10"></rect>
                <g id="format_align_center-24px" transform="translate(13.000000, 13.000000)">
                    <path d="M10.5238095,21.8571429 L10.5238095,24.6904762 L24.6904762,24.6904762 L24.6904762,21.8571429 L10.5238095,21.8571429 Z M4.85714286,30.3571429 L30.3571429,30.3571429 L30.3571429,27.5238095 L4.85714286,27.5238095 L4.85714286,30.3571429 Z M4.85714286,19.0238095 L30.3571429,19.0238095 L30.3571429,16.1904762 L4.85714286,16.1904762 L4.85714286,19.0238095 Z M10.5238095,10.5238095 L10.5238095,13.3571429 L24.6904762,13.3571429 L24.6904762,10.5238095 L10.5238095,10.5238095 Z M4.85714286,4.85714286 L4.85714286,7.69047619 L30.3571429,7.69047619 L30.3571429,4.85714286 L4.85714286,4.85714286 Z" id="Shape" fill="#89C9D2" fill-rule="nonzero"></path>
                    <polygon id="Path" points="0 0 34 0 34 34 0 34"></polygon>
                </g>
            </g>
        </g>
    </g>
</svg>
