
<svg width="1767px" height="2004px" viewBox="0 0 1767 2004" version="1.1" xmlns="http://www.w3.org/2000/svg" xmlns:xlink="http://www.w3.org/1999/xlink">
    <g id="Page-1" stroke="none" stroke-width="1" fill="none" fill-rule="evenodd">
        <g id="html" fill-rule="nonzero">
            <polygon id="Path" fill="#E44D26" points="1766.91803 0.109835938 1605.95595 1803.30624 882.419578 2003.89072 160.877836 1803.58327 0.0819726562 0.109835938"></polygon>
            <polygon id="Path" fill="#F16529" points="883.5 1850.56777 1468.15368 1688.48371 1605.69969 147.566645 883.5 147.566645"></polygon>
            <path d="M570.593203,589.950922 L883.5,589.950922 L883.5,368.762246 L328.86266,368.762246 L334.153957,428.10234 L388.52134,1037.64035 L883.5,1037.64035 L883.5,816.451672 L590.809559,816.451672 L570.593203,589.950922 L570.593203,589.950922 Z M620.444977,1148.23815 L398.40443,1148.23815 L429.390375,1495.53837 L882.48191,1621.31056 L883.5,1621.03353 L883.5,1390.90367 L882.530391,1391.15993 L636.194203,1324.64472 L620.444977,1148.23815 L620.444977,1148.23815 Z" id="Shape" fill="#EBEBEB"></path>
            <path d="M882.738164,1037.64035 L1155.10836,1037.64035 L1129.42757,1324.50621 L882.731238,1391.09067 L882.731238,1621.20668 L1336.18291,1495.53837 L1339.50729,1458.16686 L1391.4922,875.847172 L1396.88739,816.451672 L882.738164,816.451672 L882.738164,1037.64035 Z M882.738164,589.410711 L882.738164,589.950922 L1417.01371,589.950922 L1421.44621,540.237664 L1431.53014,428.10234 L1436.81452,368.762246 L882.738164,368.762246 L882.738164,589.417637 L882.738164,589.410711 Z" id="Shape" fill="#FFFFFF"></path>
        </g>
    </g>
</svg>